# xmcd
#
# Track frame offsets:
# 150
# 13935
# 29576
# 43667
# 59762
# 75857
# 92150
# 106602
# 122460
# 137924
#
# Disc length: 2141 seconds
#
#
# Revision: 3
# Processed by: cddbd v1.5.2PL0 Copyright (c) Steve Scherf et al.
# Submitted via: Axialis_AX_CDPlayer 2.6 
#
DISCID=7d085b0a
DTITLE=Dixie Chicks - Shouldn't a Told You That
DYEAR=1993
DGENRE=Country
TTITLE0=Whistles and Bells
TTITLE1=I'm Falling Again
TTITLE2=Shouldn't a Told You That
TTITLE3=Desire
TTITLE4=There Goes My Dream
TTITLE5=One Heart Away
TTITLE6=The Thrill is in the Chase
TTITLE7=I Wasn't Looking For You
TTITLE8=I've Only Got Myself to Blame
TTITLE9=Planet of Love
EXTD=
EXTT0=
EXTT1=
EXTT2=
EXTT3=
EXTT4=
EXTT5=
EXTT6=
EXTT7=
EXTT8=
EXTT9=
PLAYORDER=
